<svg width="16" height="16" viewBox="0 0 16 16" fill="none" xmlns="http://www.w3.org/2000/svg">
<path fill-rule="evenodd" clip-rule="evenodd" d="M16 8C16 12.4183 12.4183 16 8 16C3.58172 16 0 12.4183 0 8C0 3.58172 3.58172 0 8 0C12.4183 0 16 3.58172 16 8Z" fill="#308B85"/>
<path d="M6.86127 5.36335C7.36793 4.45445 7.62126 4 8 4C8.37874 4 8.63207 4.45445 9.13873 5.36335L9.26981 5.59849C9.41379 5.85677 9.48578 5.98591 9.59802 6.07112C9.71027 6.15633 9.85006 6.18796 10.1296 6.25122L10.3842 6.30881C11.3681 6.53142 11.86 6.64273 11.977 7.01909C12.0941 7.39546 11.7587 7.78763 11.088 8.57197L10.9144 8.77489C10.7238 8.99777 10.6285 9.10922 10.5857 9.24709C10.5428 9.38496 10.5572 9.53364 10.586 9.83102L10.6122 10.1018C10.7136 11.1482 10.7644 11.6715 10.4579 11.9041C10.1515 12.1367 9.69093 11.9246 8.76973 11.5005L8.53141 11.3907C8.26963 11.2702 8.13874 11.2099 8 11.2099C7.86126 11.2099 7.73037 11.2702 7.46859 11.3907L7.23027 11.5005C6.30907 11.9246 5.84847 12.1367 5.54206 11.9041C5.23565 11.6715 5.28635 11.1482 5.38776 10.1018L5.41399 9.83102C5.44281 9.53364 5.45722 9.38496 5.41435 9.24709C5.37147 9.10922 5.27617 8.99777 5.08557 8.77489L4.91204 8.57197C4.2413 7.78763 3.90593 7.39546 4.02297 7.01909C4.14001 6.64273 4.63194 6.53142 5.61581 6.30881L5.87035 6.25122C6.14994 6.18796 6.28973 6.15633 6.40198 6.07112C6.51422 5.98591 6.58621 5.85677 6.73019 5.59849L6.86127 5.36335Z" fill="white"/>
</svg>
