<svg width="24" height="30" viewBox="0 0 24 30" fill="none" xmlns="http://www.w3.org/2000/svg">
<ellipse cx="13.0462" cy="28" rx="2.0462" ry="2" fill="white"/>
<path d="M9 18C9.82843 18 10.5 18.6716 10.5 19.5C10.5 20.3284 9.82843 21 9 21C8.17157 21 7.5 20.3284 7.5 19.5C7.5 18.6716 8.17157 18 9 18Z" stroke="white" stroke-width="1.5"/>
<path d="M16 18C16.8284 18 17.5 18.6716 17.5 19.5C17.5 20.3284 16.8284 21 16 21C15.1716 21 14.5 20.3284 14.5 19.5C14.5 18.6716 15.1716 18 16 18Z" stroke="white" stroke-width="1.5"/>
<path d="M6 12C6 10.5646 6.00159 9.56347 6.10315 8.80812C6.2018 8.07434 6.38225 7.68577 6.65901 7.40901C6.93577 7.13225 7.32434 6.9518 8.05812 6.85315C8.81347 6.75159 9.81458 6.75 11.25 6.75H14.1672C15.8341 6.75 17.0037 6.75179 17.873 6.87517C18.7215 6.9956 19.1454 7.21511 19.4254 7.54566C19.7054 7.8762 19.8523 8.33044 19.8316 9.18719C19.8104 10.0649 19.6198 11.2189 19.3458 12.8631C19.1431 14.0793 19.0011 14.9228 18.8129 15.5551C18.6307 16.1672 18.4294 16.4911 18.163 16.7168C17.8965 16.9425 17.544 17.0878 16.9102 17.1669C16.2556 17.2486 15.4003 17.25 14.1672 17.25H11.25C9.81458 17.25 8.81347 17.2484 8.05812 17.1469C7.32434 17.0482 6.93577 16.8678 6.65901 16.591C6.38225 16.3142 6.2018 15.9257 6.10315 15.1919C6.00159 14.4365 6 13.4354 6 12Z" fill="white" stroke="white" stroke-width="1.5"/>
<path d="M5.75 11.5V5C5.75 3.89543 4.85457 3 3.75 3H2.5" stroke="white" stroke-width="1.5" stroke-linecap="round"/>
</svg>
