<?xml version="1.0" encoding="UTF-8"?>
<svg xmlns="http://www.w3.org/2000/svg" xmlns:xlink="http://www.w3.org/1999/xlink" width="52pt" height="52pt" viewBox="0 0 52 52" version="1.1">
<g id="surface1">
<path style=" stroke:none;fill-rule:nonzero;fill:#FFFFFF;fill-opacity:1;" d="M 25.75 0 C 25.4375 0.03125 25.140625 0.140625 24.875 0.3125 L 0.875 16.3125 C -0.0585938 16.933594 -0.308594 18.191406 0.3125 19.125 C 0.933594 20.054688 2.195313 20.308594 3.125 19.6875 L 26 4.4375 L 48.875 19.6875 C 49.804688 20.308594 51.066406 20.054688 51.6875 19.125 C 52.308594 18.191406 52.058594 16.933594 51.125 16.3125 L 27.125 0.3125 C 26.71875 0.0429688 26.230469 -0.0664063 25.75 0 Z M 26 9 L 2 24 L 2 46 C 2 49.3125 4.683594 52 8 52 L 44 52 C 47.3125 52 50 49.3125 50 46 L 50 24 Z M 22 22 L 30 22 L 30 30 L 38 30 L 38 38 L 30 38 L 30 46 L 22 46 L 22 38 L 14 38 L 14 30 L 22 30 Z "/>
</g>
</svg>
