<svg width="16" height="16" viewBox="0 0 16 16" fill="none" xmlns="http://www.w3.org/2000/svg">
<path fill-rule="evenodd" clip-rule="evenodd" d="M0 8C0 12.4183 3.58172 16 8 16C12.4183 16 16 12.4183 16 8C16 3.58172 12.4183 0 8 0C3.58172 0 0 3.58172 0 8Z" fill="#308B85"/>
<path d="M8 4C5.8 4 4 5.8 4 8C4 10.2 5.8 12 8 12C10.2 12 12 10.2 12 8C12 5.8 10.2 4 8 4ZM9.95938 9.4L9.4 9.95938L8 8.56016L6.6 9.95938L6.04063 9.4L7.43984 8L6.04063 6.6L6.6 6.04063L8 7.43984L9.4 6.04063L9.95938 6.6L8.56016 8L9.95938 9.4Z" fill="white"/>
</svg>
