<svg width="24" height="24" viewBox="0 0 24 24" fill="none" xmlns="http://www.w3.org/2000/svg">
<path fill-rule="evenodd" clip-rule="evenodd" d="M12 9C10.3432 9 9.00002 10.3431 9.00002 12C9.00002 13.6569 10.3432 15 12 15C13.6569 15 15 13.6569 15 12C15 10.3431 13.6569 9 12 9ZM10.2 12C10.2 11.0059 11.0059 10.2 12 10.2C12.9941 10.2 13.8 11.0059 13.8 12C13.8 12.9941 12.9941 13.8 12 13.8C11.0059 13.8 10.2 12.9941 10.2 12Z" fill="#1C274C"/>
<path fill-rule="evenodd" clip-rule="evenodd" d="M12 5C8.38872 5 5.95626 7.16336 4.54448 8.99749L4.51902 9.03056C4.19974 9.44523 3.90567 9.82714 3.70617 10.2787C3.49254 10.7623 3.40002 11.2894 3.40002 12C3.40002 12.7106 3.49254 13.2377 3.70617 13.7213C3.90567 14.1729 4.19974 14.5548 4.51902 14.9694L4.54448 15.0025C5.95626 16.8366 8.38872 19 12 19C15.6113 19 18.0438 16.8366 19.4556 15.0025L19.481 14.9695C19.8003 14.5548 20.0944 14.1729 20.2939 13.7213C20.5075 13.2377 20.6 12.7106 20.6 12C20.6 11.2894 20.5075 10.7623 20.2939 10.2787C20.0944 9.82713 19.8003 9.44521 19.481 9.03054L19.4556 8.99749C18.0438 7.16336 15.6113 5 12 5ZM5.4954 9.72944C6.79893 8.03594 8.92031 6.2 12 6.2C15.0797 6.2 17.2011 8.03594 18.5047 9.72944C18.8555 10.1853 19.061 10.4576 19.1962 10.7636C19.3226 11.0496 19.4 11.3991 19.4 12C19.4 12.6009 19.3226 12.9504 19.1962 13.2364C19.061 13.5424 18.8555 13.8147 18.5047 14.2706C17.2011 15.9641 15.0797 17.8 12 17.8C8.92031 17.8 6.79893 15.9641 5.4954 14.2706C5.14453 13.8147 4.93901 13.5424 4.80383 13.2364C4.67749 12.9504 4.60002 12.6009 4.60002 12C4.60002 11.3991 4.67749 11.0496 4.80383 10.7636C4.93901 10.4576 5.14453 10.1853 5.4954 9.72944Z" fill="#1C274C"/>
</svg>
