<svg width="11" height="10" viewBox="0 0 11 10" fill="none" xmlns="http://www.w3.org/2000/svg">
<path d="M10.1274 0.97863C9.55795 0.347563 8.77662 0 7.92715 0C7.29218 0 6.71068 0.205125 6.19875 0.609628C5.94043 0.81381 5.70637 1.06361 5.5 1.35518C5.29372 1.0637 5.05957 0.81381 4.80117 0.609628C4.28932 0.205125 3.70782 0 3.07285 0C2.22338 0 1.44197 0.347563 0.872551 0.97863C0.309929 1.60232 0 2.45438 0 3.37795C0 4.32854 0.346687 5.19869 1.091 6.11644C1.75685 6.93736 2.71383 7.77073 3.82204 8.73572C4.20045 9.06528 4.62938 9.43882 5.07476 9.83672C5.19242 9.94203 5.3434 10 5.5 10C5.65652 10 5.80758 9.94203 5.92507 9.83689C6.37045 9.43891 6.79964 9.06519 7.17822 8.73546C8.28625 7.77064 9.24323 6.93736 9.90908 6.11635C10.6534 5.19869 11 4.32854 11 3.37787C11 2.45438 10.6901 1.60232 10.1274 0.97863Z" fill="#FE585A"/>
</svg>
