<svg width="13" height="12" viewBox="0 0 13 12" fill="none" xmlns="http://www.w3.org/2000/svg">
<path d="M4.98087 9.82558L5.4579 9.24684L4.98087 9.82558ZM6.5 2.81474L5.9482 3.32269C6.09021 3.47697 6.29032 3.56474 6.5 3.56474C6.70968 3.56474 6.90979 3.47697 7.0518 3.32269L6.5 2.81474ZM8.01913 9.82558L8.49617 10.4043L8.01913 9.82558ZM5.4579 9.24684C3.87507 7.94218 2.25 6.82719 2.25 4.71588H0.75C0.75 7.68922 3.14435 9.28376 4.50383 10.4043L5.4579 9.24684ZM2.25 4.71588C2.25 3.70701 2.79476 2.89942 3.4797 2.57206C4.10726 2.27212 5.01136 2.30497 5.9482 3.32269L7.0518 2.30679C5.73872 0.88035 4.14282 0.592605 2.83286 1.21869C1.58028 1.81736 0.75 3.18241 0.75 4.71588H2.25ZM4.50383 10.4043C4.75634 10.6125 5.05143 10.855 5.35658 11.0414C5.6606 11.2272 6.05098 11.4064 6.5 11.4064V9.90637C6.44902 9.90637 6.3394 9.88411 6.13864 9.76145C5.939 9.63947 5.72453 9.46662 5.4579 9.24684L4.50383 10.4043ZM8.49617 10.4043C9.85565 9.28376 12.25 7.68922 12.25 4.71588H10.75C10.75 6.82719 9.12493 7.94218 7.5421 9.24684L8.49617 10.4043ZM12.25 4.71588C12.25 3.18241 11.4197 1.81736 10.1671 1.21869C8.85718 0.592605 7.26128 0.88035 5.9482 2.30679L7.0518 3.32269C7.98864 2.30497 8.89274 2.27212 9.5203 2.57206C10.2052 2.89942 10.75 3.70701 10.75 4.71588H12.25ZM7.5421 9.24684C7.27547 9.46662 7.061 9.63947 6.86136 9.76145C6.6606 9.88411 6.55098 9.90637 6.5 9.90637V11.4064C6.94902 11.4064 7.3394 11.2272 7.64342 11.0414C7.94857 10.855 8.24366 10.6125 8.49617 10.4043L7.5421 9.24684Z" fill="#454059"/>
</svg>
