<svg width="22" height="20" viewBox="0 0 22 20" fill="none" xmlns="http://www.w3.org/2000/svg">
<path d="M7.96173 17.3384L8.43876 16.7597L7.96173 17.3384ZM11 3.31674L10.4482 3.82469C10.5902 3.97897 10.7903 4.06674 11 4.06674C11.2097 4.06674 11.4098 3.97897 11.5518 3.82469L11 3.31674ZM14.0383 17.3384L14.5153 17.9172L14.0383 17.3384ZM8.43876 16.7597C5.38479 14.2424 1.75 11.7727 1.75 7.11901H0.25C0.25 12.6347 4.65407 15.584 7.4847 17.9172L8.43876 16.7597ZM1.75 7.11901C1.75 4.83898 2.98228 2.94507 4.63598 2.15469C6.2323 1.39174 8.3864 1.58489 10.4482 3.82469L11.5518 2.8088C9.11376 0.160268 6.26786 -0.287776 3.98914 0.801324C1.7678 1.863 0.25 4.31438 0.25 7.11901H1.75ZM7.4847 17.9172C7.99677 18.3392 8.54665 18.7895 9.10418 19.1301C9.6606 19.4701 10.301 19.75 11 19.75V18.25C10.699 18.25 10.3394 18.127 9.88625 17.8501C9.43422 17.574 8.96496 17.1934 8.43876 16.7597L7.4847 17.9172ZM14.5153 17.9172C17.3459 15.584 21.75 12.6347 21.75 7.11901H20.25C20.25 11.7727 16.6152 14.2424 13.5612 16.7597L14.5153 17.9172ZM21.75 7.11901C21.75 4.31438 20.2322 1.863 18.0109 0.801324C15.7321 -0.287776 12.8862 0.160268 10.4482 2.8088L11.5518 3.82469C13.6136 1.58489 15.7677 1.39174 17.364 2.15469C19.0177 2.94507 20.25 4.83898 20.25 7.11901H21.75ZM13.5612 16.7597C13.035 17.1934 12.5658 17.574 12.1138 17.8501C11.6606 18.127 11.301 18.25 11 18.25V19.75C11.699 19.75 12.3394 19.4701 12.8958 19.1301C13.4534 18.7895 14.0032 18.3392 14.5153 17.9172L13.5612 16.7597Z" fill="white"/>
</svg>
