<?xml version="1.0" encoding="UTF-8"?>
<svg xmlns="http://www.w3.org/2000/svg" xmlns:xlink="http://www.w3.org/1999/xlink" width="64pt" height="64pt" viewBox="0 0 64 64" version="1.1">
<g id="surface1">
<path style=" stroke:none;fill-rule:nonzero;fill:#FFFFFF;fill-opacity:1;" d="M 22 10 C 15.394531 10 10 15.394531 10 22 L 10 22.5 L 7.75 25.5 C 8.460938 26.03125 9.203125 26.386719 10 26.625 L 10 31.558594 C 8.78125 32.664063 8 34.246094 8 36 C 8 37.753906 8.78125 39.335938 10 40.441406 L 10 46 C 10 48.183594 11.816406 50 14 50 L 50 50 C 52.183594 50 54 48.183594 54 46 L 54 40.441406 C 55.21875 39.335938 56 37.753906 56 36 C 56 34.246094 55.21875 32.664063 54 31.558594 L 54 26.625 C 54.796875 26.386719 55.539063 26.03125 56.25 25.5 L 54 22.433594 L 54 22 C 54 15.394531 48.605469 10 42 10 Z M 22 14 L 24 14 C 24 15.105469 24.894531 16 26 16 C 27.105469 16 28 15.105469 28 14 L 42 14 C 46.441406 14 50 17.558594 50 22 L 50 23 C 49.484375 22.855469 49.011719 22.585938 48.558594 22.25 L 47.5 21.5 L 46.316406 22.191406 L 44.808594 23.058594 C 43.414063 23.898438 41.710938 23.898438 40.316406 23.058594 L 38.808594 22.191406 L 37.875 21.625 L 36.875 22.058594 L 34 23.558594 C 32.761719 24.179688 31.304688 24.179688 30.058594 23.558594 L 27.125 22.058594 L 26.125 21.625 L 25.191406 22.191406 L 23.691406 23.058594 C 22.289063 23.898438 20.585938 23.898438 19.191406 23.058594 L 17.691406 22.191406 L 16.5 21.5 L 15.441406 22.25 C 14.988281 22.585938 14.511719 22.855469 14 23 L 14 22 C 14 17.558594 17.558594 14 22 14 Z M 22 16 C 20.894531 16 20 16.894531 20 18 C 20 19.105469 20.894531 20 22 20 C 23.105469 20 24 19.105469 24 18 C 24 16.894531 23.105469 16 22 16 Z M 30 16 C 28.894531 16 28 16.894531 28 18 C 28 19.105469 28.894531 20 30 20 C 31.105469 20 32 19.105469 32 18 C 32 16.894531 31.105469 16 30 16 Z M 16.308594 26 L 17.125 26.5 C 19.78125 28.09375 23.089844 28.09375 25.75 26.5 L 26.308594 26.125 L 28.25 27.125 C 30.613281 28.304688 33.386719 28.304688 35.75 27.125 L 37.691406 26.125 L 38.25 26.5 C 40.90625 28.09375 44.214844 28.09375 46.875 26.5 L 47.691406 26 C 48.441406 26.359375 49.203125 26.589844 50 26.75 L 50 30 L 14 30 L 14 26.75 C 14.796875 26.589844 15.558594 26.359375 16.308594 26 Z M 14 34 L 50 34 C 51.128906 34 52 34.871094 52 36 C 52 37.128906 51.128906 38 50 38 L 14 38 C 12.871094 38 12 37.128906 12 36 C 12 34.871094 12.871094 34 14 34 Z M 14 42 L 50 42 L 50 46 L 14 46 Z "/>
</g>
</svg>
