<svg width="16" height="16" viewBox="0 0 16 16" fill="none" xmlns="http://www.w3.org/2000/svg">
<path fill-rule="evenodd" clip-rule="evenodd" d="M0 8C0 12.4183 3.58172 16 8 16C12.4183 16 16 12.4183 16 8C16 3.58172 12.4183 0 8 0C3.58172 0 0 3.58172 0 8Z" fill="#308B85"/>
<path d="M7.99959 3C5.2394 3 3 5.2394 3 7.99959C3 10.7598 5.2394 13 7.99959 13C10.7598 13 13 10.7598 13 7.99959C13 5.2394 10.7598 3 7.99959 3ZM7.97644 11.0532C7.57799 11.0532 7.26304 10.7383 7.26304 10.3407C7.26304 9.94222 7.57717 9.62809 7.97644 9.62809C8.37323 9.62809 8.68984 9.94222 8.68984 10.3407C8.68984 10.7383 8.37406 11.0532 7.97644 11.0532ZM9.02629 7.82268L8.56171 8.22692C8.21121 8.5336 8.27155 8.68488 8.27155 8.87253H7.75076V8.6824C7.75076 7.76399 8.62701 7.60693 8.62701 6.25039C8.62701 5.7296 8.4559 5.49153 8.02356 5.49153C7.62511 5.49153 7.44656 5.68662 7.5036 6.15615C7.53914 6.4521 7.24072 6.56865 7.04646 6.56865C6.82492 6.56865 6.63892 6.34959 6.63892 6.05117C6.63892 5.54857 7.16798 5.01868 8.08886 5.01868C8.98578 5.01868 9.76697 5.42291 9.76697 6.40002C9.76779 7.00347 9.5479 7.3672 9.02629 7.82268Z" fill="white"/>
</svg>
