<svg width="24" height="30" viewBox="0 0 24 30" fill="none" xmlns="http://www.w3.org/2000/svg">
<ellipse cx="12.0462" cy="28" rx="2.0462" ry="2" fill="white"/>
<path d="M2 9.99927L10.7506 2.99881C11.481 2.41446 12.519 2.41446 13.2494 2.99881L22 9.99927" stroke="white" stroke-width="1.5" stroke-linecap="round" stroke-linejoin="round"/>
<path d="M9.47763 4.04866L5.47763 7.29866C4.75138 7.88874 4.38825 8.18378 4.19412 8.59163C4 8.99948 4 9.46736 4 10.4032V13.9993C4 17.7705 4 19.6562 5.17157 20.8277C6.34315 21.9993 8.22876 21.9993 12 21.9993C15.7712 21.9993 17.6569 21.9993 18.8284 20.8277C20 19.6562 20 17.7705 20 13.9993V10.4032C20 9.46736 20 8.99948 19.8059 8.59163C19.6117 8.18378 19.2486 7.88874 18.5224 7.29866L14.5224 4.04866C13.3142 3.067 12.7101 2.57617 12 2.57617C11.2899 2.57617 10.6858 3.067 9.47763 4.04866Z" fill="white" stroke="white" stroke-width="1.5"/>
<path d="M9.75 16.25H14.25" stroke="#707070" stroke-opacity="0.33" stroke-width="1.5" stroke-linecap="round"/>
</svg>
