<svg width="16" height="16" viewBox="0 0 16 16" fill="none" xmlns="http://www.w3.org/2000/svg">
<path fill-rule="evenodd" clip-rule="evenodd" d="M0 8C0 12.4183 3.58172 16 8 16C12.4183 16 16 12.4183 16 8C16 3.58172 12.4183 0 8 0C3.58172 0 0 3.58172 0 8Z" fill="#308B85"/>
<path d="M7.99967 4C5.79152 4 4 5.79152 4 7.99967C4 10.2078 5.79152 12 7.99967 12C10.2078 12 12 10.2078 12 7.99967C12 5.79152 10.2078 4 7.99967 4ZM8.83227 10.1992C8.62594 10.2806 8.46259 10.3414 8.33959 10.3844C8.21724 10.4267 8.0744 10.4479 7.91237 10.4479C7.66306 10.4479 7.46929 10.3877 7.33107 10.266C7.19286 10.1443 7.12408 9.99025 7.12408 9.80309C7.12408 9.73035 7.12871 9.65562 7.13929 9.58023C7.14987 9.50351 7.1664 9.41886 7.18889 9.32297L7.4468 8.41299C7.46929 8.3257 7.48913 8.24237 7.50434 8.16566C7.52021 8.08762 7.52815 8.0162 7.52815 7.95073C7.52815 7.835 7.50368 7.75432 7.4554 7.70803C7.40779 7.6624 7.31652 7.63991 7.18029 7.63991C7.11482 7.63991 7.04604 7.64983 6.97528 7.67033C6.90584 7.69149 6.84633 7.71133 6.79673 7.72985L6.86484 7.44945C7.03348 7.38133 7.19484 7.32248 7.34893 7.27354C7.50302 7.22394 7.64851 7.19947 7.78606 7.19947C8.0334 7.19947 8.22386 7.25965 8.35877 7.37935C8.49235 7.49839 8.55981 7.6538 8.55981 7.84492C8.55981 7.8846 8.55452 7.95404 8.54592 8.0539C8.53666 8.15376 8.51947 8.24436 8.49434 8.32835L8.23841 9.23568C8.21724 9.30842 8.19873 9.39175 8.18153 9.485C8.165 9.57824 8.1564 9.64967 8.1564 9.69728C8.1564 9.81764 8.18352 9.90031 8.23774 9.94329C8.29131 9.9876 8.38456 10.0094 8.51748 10.0094C8.58031 10.0094 8.65041 9.99818 8.72911 9.97636C8.80846 9.9552 8.86468 9.93602 8.90105 9.91882L8.83227 10.1992ZM8.7873 6.51567C8.6676 6.62677 8.52344 6.68166 8.35546 6.68166C8.18748 6.68166 8.04199 6.62677 7.92163 6.51567C7.80127 6.40456 7.74109 6.26899 7.74109 6.1116C7.74109 5.9542 7.8026 5.81863 7.92163 5.70687C8.04199 5.59444 8.18748 5.53823 8.35546 5.53823C8.52344 5.53823 8.6676 5.59444 8.7873 5.70687C8.90634 5.81863 8.96652 5.9542 8.96652 6.1116C8.96652 6.26965 8.90634 6.40456 8.7873 6.51567Z" fill="white"/>
</svg>
