<svg width="16" height="16" viewBox="0 0 16 16" fill="none" xmlns="http://www.w3.org/2000/svg">
<path fill-rule="evenodd" clip-rule="evenodd" d="M8 0C3.58172 0 0 3.58172 0 8C0 12.4183 3.58172 16 8 16C12.4183 16 16 12.4183 16 8C16 3.58172 12.4183 0 8 0ZM6.36158 3.4C6.01769 3.39994 5.69619 3.39989 5.43354 3.43913C5.13682 3.48345 4.832 3.58824 4.58834 3.85897C4.35282 4.12065 4.26968 4.43248 4.23363 4.73035C4.19994 5.00877 4.19997 5.35391 4.2 5.74363L4.2 6.2C4.2 6.53137 4.46863 6.8 4.8 6.8C5.13137 6.8 5.4 6.53137 5.4 6.2V5.77778C5.4 5.34345 5.40104 5.07209 5.42494 4.8745C5.43616 4.7818 5.45018 4.72838 5.46152 4.69777C5.47108 4.67194 5.47791 4.66437 5.48018 4.66185L5.48083 4.6611C5.48192 4.65978 5.48272 4.65882 5.48994 4.65552C5.50324 4.64944 5.53735 4.63694 5.61083 4.62596C5.77412 4.60157 6.00409 4.6 6.4 4.6H7.4V11.4H6C5.66863 11.4 5.4 11.6686 5.4 12C5.4 12.3314 5.66863 12.6 6 12.6H10.4C10.7314 12.6 11 12.3314 11 12C11 11.6686 10.7314 11.4 10.4 11.4H8.6V4.6H9.6C9.99591 4.6 10.2259 4.60157 10.3892 4.62596C10.4627 4.63694 10.4968 4.64944 10.5101 4.65552C10.5173 4.65882 10.5181 4.65978 10.5192 4.6611L10.5197 4.66173C10.522 4.66425 10.5289 4.67194 10.5385 4.69777C10.5498 4.72838 10.5638 4.7818 10.5751 4.8745C10.599 5.07209 10.6 5.34345 10.6 5.77778V6.2C10.6 6.53137 10.8686 6.8 11.2 6.8C11.5314 6.8 11.8 6.53137 11.8 6.2L11.8 5.74362C11.8 5.3539 11.8001 5.00877 11.7664 4.73035C11.7303 4.43248 11.6472 4.12065 11.4117 3.85897C11.168 3.58824 10.8632 3.48345 10.5665 3.43913C10.3038 3.39989 9.98231 3.39994 9.63842 3.4H6.36158Z" fill="#308B85"/>
</svg>
