<svg width="22" height="24" viewBox="0 0 22 24" fill="none" xmlns="http://www.w3.org/2000/svg">
<path d="M3.66663 15.2C3.66663 12.9373 3.66663 11.8059 4.31099 11.1029C4.95536 10.4 5.99245 10.4 8.06663 10.4H13.9333C16.0075 10.4 17.0446 10.4 17.6889 11.1029C18.3333 11.8059 18.3333 12.9373 18.3333 15.2C18.3333 17.4627 18.3333 18.5941 17.6889 19.2971C17.0446 20 16.0075 20 13.9333 20H8.06663C5.99245 20 4.95536 20 4.31099 19.2971C3.66663 18.5941 3.66663 17.4627 3.66663 15.2Z" stroke="#1C274C" stroke-width="1.5"/>
<path d="M6.59998 10.4V8.8C6.59998 6.14903 8.56992 4 11 4C13.43 4 15.4 6.14903 15.4 8.8V10.4" stroke="#1C274C" stroke-width="1.5" stroke-linecap="round"/>
</svg>
