<svg width="16" height="16" viewBox="0 0 16 16" fill="none" xmlns="http://www.w3.org/2000/svg">
<path fill-rule="evenodd" clip-rule="evenodd" d="M16 8C16 12.4183 12.4183 16 8 16C3.58172 16 0 12.4183 0 8C0 3.58172 3.58172 0 8 0C12.4183 0 16 3.58172 16 8Z" fill="#308B85"/>
<path d="M12.4286 3V3.76923H11.6429V4.53846H12.4286V5.30769H13.2143V4.53846H14V3.76923H13.2143V3H12.4286ZM6.24107 3.41731C6.16446 3.40385 6.08295 3.41154 6.00732 3.44423C4.18054 4.25288 3 6.04135 3 8C3 10.7567 5.29134 13 8.10714 13C10.1078 13 11.9346 11.8442 12.7596 10.0548C12.8273 9.90962 12.7939 9.7375 12.679 9.62404C12.5641 9.51154 12.3893 9.48173 12.24 9.54615C11.6753 9.79615 11.0781 9.92308 10.4643 9.92308C8.08161 9.92308 6.14286 8.025 6.14286 5.69231C6.14286 5.09135 6.2725 4.50673 6.52786 3.95385C6.59562 3.80865 6.5642 3.63558 6.4483 3.52308C6.39134 3.46635 6.31768 3.43077 6.24107 3.41731ZM8.5 3.76923V4.53846H9.28571V3.76923H8.5ZM5.46911 4.65288C5.39446 4.99327 5.35714 5.34038 5.35714 5.69231C5.35714 8.44904 7.64848 10.6923 10.4643 10.6923C10.8238 10.6923 11.1783 10.6558 11.526 10.5827C10.7177 11.6067 9.45955 12.2308 8.10714 12.2308C5.72446 12.2308 3.78571 10.3327 3.78571 8C3.78571 6.67596 4.42313 5.44423 5.46911 4.65288ZM10.0714 6.07692V6.84615H9.28571V7.61538H10.0714V8.38462H10.8571V7.61538H11.6429V6.84615H10.8571V6.07692H10.0714Z" fill="white"/>
</svg>
