<svg width="26" height="29" viewBox="0 0 26 29" fill="none" xmlns="http://www.w3.org/2000/svg">
<path fill-rule="evenodd" clip-rule="evenodd" d="M12.9511 4.10834H13.0489C14.6416 4.10832 15.9031 4.10831 16.8904 4.25637C17.9065 4.40874 18.729 4.72979 19.3775 5.45321C20.0261 6.17662 20.314 7.09394 20.4506 8.22728C20.5833 9.32852 20.5833 10.7356 20.5833 12.5121V16.4879C20.5833 18.2644 20.5833 19.6715 20.4506 20.7727C20.314 21.9061 20.0261 22.8234 19.3775 23.5468C18.729 24.2702 17.9065 24.5913 16.8904 24.7436C15.9031 24.8917 14.6416 24.8917 13.0488 24.8917H12.9511C11.3583 24.8917 10.0968 24.8917 9.10947 24.7436C8.09337 24.5913 7.27095 24.2702 6.62237 23.5468C5.97379 22.8234 5.68595 21.9061 5.54934 20.7727C5.4166 19.6715 5.41661 18.2644 5.41663 16.4879V12.5121C5.41661 10.7356 5.4166 9.32852 5.54934 8.22728C5.68595 7.09394 5.97379 6.17662 6.62237 5.45321C7.27095 4.72979 8.09337 4.40874 9.10947 4.25637C10.0968 4.10831 11.3583 4.10832 12.9511 4.10834ZM9.2827 5.69344C8.41075 5.82419 7.90839 6.06941 7.54161 6.47851C7.17483 6.88761 6.95498 7.44794 6.83775 8.42049C6.71801 9.4139 6.71663 10.7234 6.71663 12.5667L6.71663 16.4333C6.71663 18.2766 6.71801 19.5861 6.83775 20.5795C6.95498 21.5521 7.17483 22.1124 7.54161 22.5215C7.90839 22.9306 8.41075 23.1758 9.2827 23.3066C10.1733 23.4401 11.3474 23.4417 13 23.4417C14.6525 23.4417 15.8266 23.4401 16.7172 23.3066C17.5892 23.1758 18.0915 22.9306 18.4583 22.5215C18.8251 22.1124 19.0449 21.5521 19.1622 20.5795C19.2819 19.5861 19.2833 18.2766 19.2833 16.4333V12.5667C19.2833 10.7234 19.2819 9.4139 19.1622 8.42049C19.0449 7.44794 18.8251 6.88761 18.4583 6.47851C18.0915 6.06941 17.5892 5.82419 16.7172 5.69344C15.8266 5.55988 14.6525 5.55834 13 5.55834C11.3474 5.55834 10.1733 5.55988 9.2827 5.69344ZM9.74996 21.2667C9.74996 20.8663 10.041 20.5417 10.4 20.5417H15.6C15.9589 20.5417 16.25 20.8663 16.25 21.2667C16.25 21.6671 15.9589 21.9917 15.6 21.9917H10.4C10.041 21.9917 9.74996 21.6671 9.74996 21.2667Z" fill="#1C274C"/>
</svg>
