<svg width="24" height="30" viewBox="0 0 24 30" fill="none" xmlns="http://www.w3.org/2000/svg">
<ellipse cx="12.0462" cy="28" rx="2.0462" ry="2" fill="white"/>
<path d="M15.25 6C15.25 7.79493 13.7949 9.25 12 9.25C10.2051 9.25 8.75 7.79493 8.75 6C8.75 4.20507 10.2051 2.75 12 2.75C13.7949 2.75 15.25 4.20507 15.25 6Z" fill="white" stroke="white" stroke-width="1.5"/>
<path d="M18.5 17C18.5 18.0756 17.8909 19.1202 16.7638 19.9252C15.6382 20.7293 14.0447 21.25 12.25 21.25C10.4553 21.25 8.86181 20.7293 7.73618 19.9252C6.60911 19.1202 6 18.0756 6 17C6 15.9244 6.60911 14.8798 7.73618 14.0748C8.86181 13.2707 10.4553 12.75 12.25 12.75C14.0447 12.75 15.6382 13.2707 16.7638 14.0748C17.8909 14.8798 18.5 15.9244 18.5 17Z" fill="white" stroke="white" stroke-width="1.5"/>
</svg>
