<svg width="310" height="119" viewBox="0 0 310 119" fill="none" xmlns="http://www.w3.org/2000/svg">
<path d="M3 47.6549C3 31.8248 15.3 18.7187 31.0983 17.7153L278.098 2.02633C295.38 0.92862 310 14.6493 310 31.966V87.8552C310 104.864 295.874 118.471 278.877 117.834L31.877 108.582C15.7568 107.978 3 94.7343 3 78.6027V47.6549Z" fill="#308B85"/>
<path d="M0 30C0 13.4315 13.4315 0 30 0H96.6945C121.653 0 135.697 28.7003 120.383 48.408L71.5325 111.272C67.7436 116.148 61.9149 119 55.7401 119H30C13.4315 119 0 105.569 0 89V30Z" fill="#EC920B"/>
</svg>
