<?xml version="1.0" encoding="UTF-8"?>
<svg xmlns="http://www.w3.org/2000/svg" xmlns:xlink="http://www.w3.org/1999/xlink" width="52pt" height="52pt" viewBox="0 0 52 52" version="1.1">
<g id="surface1">
<path style=" stroke:none;fill-rule:nonzero;fill:#FFFFFF;fill-opacity:1;" d="M 6 2 C 4.898438 2 4 2.898438 4 4 L 4 6 C 4 7.101563 4.898438 8 6 8 L 46 8 C 47.101563 8 48 7.101563 48 6 L 48 4 C 48 2.898438 47.101563 2 46 2 Z M 6 10 C 4.898438 10 4 10.898438 4 12 L 4 14.1875 L 0.625 23.9375 C 0.625 23.9375 0.5625 26 2.625 26 C 3.347656 26 3.753906 25.601563 4 25.1875 L 4 50 C 4 51.101563 4.898438 52 6 52 L 32 52 L 32 32 L 42 32 L 42 52 L 46 52 C 47.101563 52 48 51.101563 48 50 L 48 25.1875 C 48.269531 25.601563 48.765625 26 49.625 26 C 51.6875 26 51.4375 23.9375 51.4375 23.9375 L 48 14.1875 L 48 12 C 48 10.898438 47.101563 10 46 10 Z M 6.75 16 L 11.75 16 L 10 23.9375 C 10 23.9375 9.996094 23.988281 10 24 C 10 24.042969 10 24.082031 10 24.125 C 10 25.6875 8.75 26.9375 7.1875 26.9375 C 5.621094 26.9375 4.375 25.6875 4.375 24.125 C 4.375 24.082031 4.371094 24.042969 4.375 24 C 4.375 23.988281 4.375 23.9375 4.375 23.9375 Z M 15.125 16 L 20.125 16 L 19.4375 23.9375 C 19.4375 23.9375 19.4375 23.988281 19.4375 24 C 19.4375 24.015625 19.429688 24.074219 19.4375 24.125 C 19.4375 24.167969 19.4375 24.207031 19.4375 24.25 C 19.371094 25.753906 18.148438 26.9375 16.625 26.9375 C 15.105469 26.9375 13.816406 25.753906 13.75 24.25 C 13.757813 24.09375 13.75 24.039063 13.75 24 C 13.746094 23.988281 13.75 23.9375 13.75 23.9375 Z M 23.5 16 L 28.5 16 L 28.8125 23.9375 C 28.8125 23.9375 28.8125 23.988281 28.8125 24 C 28.8125 24.015625 28.8125 24.074219 28.8125 24.125 C 28.8125 24.167969 28.816406 24.207031 28.8125 24.25 C 28.746094 25.753906 27.519531 26.9375 26 26.9375 C 24.480469 26.9375 23.253906 25.753906 23.1875 24.25 C 23.183594 24.207031 23.1875 24.167969 23.1875 24.125 C 23.1875 24.074219 23.1875 24.015625 23.1875 24 C 23.1875 23.988281 23.1875 23.9375 23.1875 23.9375 Z M 31.875 16 L 36.875 16 L 38.25 23.9375 C 38.25 23.9375 38.25 23.988281 38.25 24 C 38.253906 24.015625 38.246094 24.074219 38.25 24.125 C 38.25 25.6875 37 26.9375 35.4375 26.9375 C 33.917969 26.9375 32.628906 25.753906 32.5625 24.25 C 32.5625 24.207031 32.5625 24.167969 32.5625 24.125 C 32.566406 24.074219 32.5625 24.015625 32.5625 24 C 32.5625 23.988281 32.5625 23.9375 32.5625 23.9375 Z M 40.25 16 L 45.25 16 L 47.625 23.9375 C 47.625 23.9375 47.625 23.988281 47.625 24 C 47.625 24.015625 47.625 24.074219 47.625 24.125 C 47.625 25.6875 46.378906 26.9375 44.8125 26.9375 C 43.289063 26.9375 42.007813 25.753906 41.9375 24.25 C 41.945313 24.210938 41.933594 24.21875 41.9375 24.1875 C 41.9375 24.167969 41.9375 24.148438 41.9375 24.125 C 41.945313 24.042969 42 23.9375 42 23.9375 Z M 10 32 L 26 32 L 26 46 L 10 46 Z "/>
</g>
</svg>
