<svg width="24" height="26" viewBox="0 0 24 26" fill="none" xmlns="http://www.w3.org/2000/svg">
<path d="M3.56589 12.3056C3.56589 11.5782 3.78158 10.8787 4.18246 10.2864C4.05075 9.86159 3.98268 9.41643 3.98268 8.97523C3.98268 7.07267 5.18267 5.41522 6.92231 4.79296C7.07745 3.37443 7.98793 2.15375 9.27101 1.56947C8.61157 0.502919 7.5707 -0.122436 6.61116 0.0330196C5.91768 0.145636 5.34311 0.616419 5.00543 1.32701C4.39771 1.0479 3.76567 1.00152 3.21142 1.19628C2.61165 1.40739 2.1458 1.85874 1.86426 2.50131C1.49079 3.35234 1.49034 4.4476 1.85144 5.48897C1.36482 5.82285 1.00107 6.3135 0.788475 6.9287C0.430911 7.96168 0.550246 9.20798 1.11554 10.3496C1.17742 10.4741 1.24504 10.5978 1.31885 10.7192C0.788033 11.0642 0.39069 11.5756 0.177655 12.1996C-0.160904 13.1898 -0.0110719 14.3565 0.588699 15.3997C0.864054 15.8789 1.22869 16.313 1.65343 16.6698C1.51156 17.2634 1.61896 17.9157 1.96459 18.5061C2.44768 19.3298 3.31794 19.8885 4.24787 19.9825C5.49338 22.3214 6.99877 23.5147 9.15167 24.5486C6.59392 21.5274 5.17162 19.0251 5.09162 15.2517C4.1502 14.58 3.56589 13.4764 3.56589 12.3056Z" fill="#28B446"/>
<path d="M23.2457 8.85556C23.2811 7.13584 22.2702 5.58879 20.7039 4.92016C20.4753 3.45261 19.2917 2.30568 17.8208 2.11136C17.8075 1.96518 17.7797 1.81944 17.7377 1.67547C17.4783 0.790434 16.6973 0.124007 15.7952 0.0171318C15.2051 -0.053088 14.6474 0.0948595 14.1864 0.418578C13.7753 0.146972 13.2967 0.000349729 12.8061 0.000349729C11.5424 0.000349729 10.4923 0.933082 10.3093 2.14581C8.86446 2.43729 7.78116 3.72377 7.78116 5.22886C7.78116 5.30968 7.78469 5.3905 7.79088 5.47264C6.11577 5.77384 4.86496 7.22814 4.86496 8.97569C4.86496 9.48092 4.97413 9.98173 5.18363 10.4424C4.71291 10.9454 4.44861 11.6074 4.44861 12.3061C4.44861 13.3501 5.04882 14.2969 5.97124 14.7527C5.93058 18.7552 7.38956 21.1851 10.2359 24.4594L10.3964 24.6418L10.4255 24.6749C10.8569 25.1585 11.4779 25.4244 12.1749 25.4244C12.2956 25.4244 12.4145 25.4142 12.5316 25.3992L12.3804 25.1059C11.4306 22.8488 10.8476 20.8446 10.5223 19.0631C9.29672 18.6859 8.76678 17.7072 8.74335 17.6622C8.62932 17.4467 8.71286 17.179 8.92855 17.0655C9.14291 16.952 9.40942 17.0342 9.52478 17.2484C9.54113 17.2789 9.79837 17.7311 10.361 18.0394C10.2072 16.8836 10.1626 15.8281 10.2072 14.8768C10.2019 14.8287 10.2041 14.7814 10.2152 14.7328C10.2921 13.373 10.5405 12.2221 10.8684 11.2576C9.37937 10.3704 9.1955 8.71866 9.32368 7.91709C9.36213 7.6764 9.58931 7.5099 9.82975 7.55053C10.0706 7.58896 10.2346 7.81463 10.197 8.05488C10.186 8.12598 9.98754 9.59089 11.1933 10.415C11.2534 10.2759 11.3139 10.1376 11.3767 10.0082C12.5391 7.61104 14.2005 6.41818 14.8436 6.02469C14.8423 5.14009 15.4226 4.37165 15.45 4.33588C15.5981 4.142 15.8765 4.10578 16.0692 4.25329C16.2628 4.40124 16.2999 4.67814 16.1523 4.87158C16.0538 5.0023 15.8602 5.32779 15.7735 5.68595C16.7914 5.57069 17.785 6.14481 17.8354 6.17484C18.0462 6.29894 18.1156 6.56966 17.9918 6.77944C17.9092 6.919 17.7616 6.99672 17.6109 6.99672C17.5344 6.99672 17.4575 6.97729 17.3872 6.93578C17.0791 6.75603 16.1413 6.359 15.4986 6.66638C15.3868 6.72335 14.6345 7.12789 13.7784 8.02043C15.5318 7.8928 16.7512 8.41305 16.8126 8.43954C17.0358 8.53803 17.1375 8.79859 17.0398 9.02162C16.9669 9.18679 16.8047 9.28572 16.6345 9.28572C16.5757 9.28572 16.5156 9.27423 16.4582 9.24862C16.425 9.23449 14.9298 8.61531 12.9479 9.02736C12.551 9.58514 12.1692 10.2538 11.8527 11.0505C11.8518 11.1088 11.8399 11.168 11.8143 11.2245C11.7975 11.262 11.7749 11.2947 11.7502 11.3247C11.4987 12.0133 11.2958 12.7874 11.1738 13.6619C12.1731 13.0356 13.4337 13.0083 13.5057 13.0074H13.511C13.7523 13.0074 13.949 13.2008 13.9526 13.4428C13.9561 13.6866 13.7607 13.8867 13.5172 13.8906C13.4986 13.8911 11.6799 13.9335 11.0611 14.9877C11.0178 16.0648 11.0925 17.2674 11.3223 18.6055C11.3245 18.6157 11.3259 18.6258 11.3272 18.6364C11.6366 20.4202 12.2182 22.4389 13.1822 24.7306L13.3926 25.136C13.717 24.9726 13.9963 24.7465 14.1957 24.4682C14.5285 24.0036 14.6071 23.4401 14.4162 22.8814C13.6171 20.5386 13.6418 18.7508 14.4896 17.5672C15.5883 16.0326 17.8769 15.8034 19.1428 15.8034C19.7947 15.8034 20.2424 15.8634 20.2468 15.8643L20.7012 15.9261L20.7467 15.4704C20.7529 15.4103 20.8833 13.9874 20.0524 13.0206C20.0042 12.9645 19.9534 12.9115 19.9012 12.8607C20.1359 12.8082 20.3679 12.7336 20.596 12.6373C22.1712 11.9735 23.2117 10.4887 23.2457 8.85556Z" fill="#28B446"/>
</svg>
