<svg width="43" height="41" viewBox="0 0 43 41" fill="none" xmlns="http://www.w3.org/2000/svg">
<path d="M38.0228 1.48081C34.7362 -0.416112 30.2056 -0.496058 26.2012 1.27267C22.4959 2.91007 19.8249 6.51796 18.2461 9.22932C17.5355 9.05602 16.7749 9.39393 16.4449 10.0817C16.1292 10.7393 16.3136 11.5022 16.839 11.9581C16.695 12.2786 16.6071 12.4938 16.574 12.5777L8.9054 29.4215C8.13218 29.0653 7.21098 29.3827 6.82955 30.1511C6.44099 30.9338 6.75995 31.8835 7.5426 32.2728L7.59482 32.299L5.8697 36.0905H1.58277C0.709082 36.0905 0 36.7996 0 37.6733C0 38.547 0.709082 39.2561 1.58277 39.2561H9.49663C10.3703 39.2561 11.0794 38.547 11.0794 37.6733C11.0794 36.7996 10.3703 36.0905 9.49663 36.0905H9.34783L10.4455 33.6792C10.5903 33.7211 10.7367 33.7496 10.8831 33.7496C11.4647 33.7496 12.0251 33.4275 12.3021 32.8712C12.6646 32.1416 12.4065 31.2733 11.737 30.8428L19.6834 13.3889C19.8978 13.4878 20.1218 13.5369 20.3441 13.5369C20.9337 13.5369 21.4995 13.2062 21.7718 12.6387C22.1342 11.8845 21.8398 10.9902 21.1228 10.5834C22.4768 8.30184 24.6446 5.42198 27.4816 4.16842C30.5316 2.82069 34.0486 2.84129 36.4409 4.22222C38.2002 5.23759 39.2108 6.8528 39.4466 9.02432C39.8882 13.0913 39.5138 15.8184 38.3371 17.1313C38.2286 17.2523 38.1092 17.356 37.9873 17.4541V20.9971C38.9623 20.6679 39.8984 20.1306 40.693 19.2451C42.5226 17.2072 43.1438 13.752 42.5939 8.68319C42.2537 5.54223 40.6297 2.98447 38.0228 1.48081Z" fill="#FF7EB6"/>
<path d="M33.5153 28.1767C34.5481 28.1767 35.5247 28.4117 36.4039 28.8216V21.366V18.1546V16.3059C36.4039 15.4315 36.487 15.5146 35.6125 15.5146H32.5127C31.6383 15.5146 22.8182 16.2403 20.4884 27.7572L18.9934 37.2775C18.9934 38.152 19.7017 39.256 20.5762 39.256H28.0872C27.1834 38.0919 26.6398 36.6357 26.6398 35.0521C26.6398 31.2606 29.7246 28.1767 33.5153 28.1767Z" fill="#FF7EB6"/>
<path d="M37.1952 31.2567C36.9522 31.0217 36.6879 30.8097 36.4039 30.6237C35.5721 30.0792 34.5805 29.7595 33.5153 29.7595C30.5966 29.7595 28.2225 32.1337 28.2225 35.0523C28.2225 36.7664 29.0456 38.289 30.3134 39.2561C30.755 39.5932 31.2496 39.8615 31.7838 40.0475C32.3275 40.2366 32.9084 40.3443 33.5154 40.3443C34.1224 40.3443 34.7033 40.2366 35.247 40.0475C35.8073 39.8528 36.3257 39.5671 36.7831 39.2071C37.2136 38.8683 37.5927 38.4671 37.9006 38.0129C38.4735 37.1668 38.8091 36.1475 38.8091 35.0515C38.8091 34.0148 38.5052 33.05 37.9885 32.2334C37.761 31.8772 37.4967 31.5489 37.1952 31.2567ZM33.5152 32.3972C34.9809 32.3972 36.1696 33.5858 36.1696 35.0515C36.1696 36.5171 34.9809 37.7058 33.5152 37.7058C32.0496 37.7058 30.861 36.5171 30.861 35.0515C30.861 33.5858 32.0488 32.3972 33.5152 32.3972Z" fill="#FF7EB6"/>
</svg>
