<svg width="38" height="39" viewBox="0 0 38 39" fill="none" xmlns="http://www.w3.org/2000/svg">
<path d="M26.9668 1.14258C26.9668 0.51157 26.4552 0 25.8242 0H21.2539C20.6229 0 20.1113 0.51157 20.1113 1.14258V3.12305H26.9668V1.14258Z" fill="#0CD4DC"/>
<path d="M6.82272 33.0044C5.81664 32.4108 4.8881 31.6914 4.06293 30.8663C4.00268 30.8061 3.94388 30.7446 3.88492 30.6833C2.52441 31.3611 1.295 32.3082 0.277418 33.4877C-0.0924727 33.9165 -0.0924727 34.5516 0.277418 34.9804C2.48107 37.5349 5.67816 38.9999 9.04876 38.9999C10.0542 38.9999 11.0437 38.8686 11.9965 38.6179C10.8003 37.3558 9.82358 35.9108 9.09835 34.3469L6.82272 33.0044Z" fill="#0CD4DC"/>
<path d="M7.98389 31.0363C7.74425 29.9367 7.61918 28.8052 7.61918 27.6589C7.61918 25.0648 8.25079 22.5627 9.40305 20.3382C7.55801 19.4171 5.47936 18.9955 3.37412 19.1506C2.80931 19.1922 2.3602 19.6413 2.31861 20.2061C2.07067 23.5706 3.29543 26.8672 5.67878 29.2505C6.37598 29.9477 7.15156 30.5452 7.98389 31.0363V31.0363Z" fill="#0CD4DC"/>
<path d="M30.0967 15.7023C28.2646 14.6956 27.2138 12.9194 27.2138 10.8291V7.68864C27.8004 7.64035 28.2616 7.14988 28.2616 6.55086C28.2616 5.95078 27.7986 5.4597 27.2106 5.41293C27.2104 5.40988 19.8676 5.40988 19.8674 5.41293C19.2794 5.4597 18.8164 5.95078 18.8164 6.55086C18.8164 7.14988 19.2776 7.64035 19.8642 7.68864V10.8291C19.8642 12.9193 18.8134 14.6955 16.9813 15.7023C13.9826 17.3501 11.7643 20.028 10.6692 23.1563H36.4088C35.3137 20.028 33.0954 17.3501 30.0967 15.7023V15.7023Z" fill="#0CD4DC"/>
<path d="M36.9914 25.4414H10.0867C9.96699 26.1676 9.9043 26.9086 9.9043 27.6589C9.9043 32.0728 12.0569 36.2337 15.6626 38.7895C15.8558 38.9264 16.0866 39 16.3233 39H30.7547C30.9914 39 31.2223 38.9265 31.4154 38.7895C35.0211 36.2337 37.1737 32.0728 37.1737 27.6589C37.1738 26.9087 37.1111 26.1676 36.9914 25.4414Z" fill="#0CD4DC"/>
</svg>
