<svg width="34" height="37" viewBox="0 0 34 37" fill="none" xmlns="http://www.w3.org/2000/svg">
<path d="M29.5594 12.3622C26.4683 13.6502 23.2472 14.4646 19.9467 14.7959L21.5027 12.1009L26.8084 12.4194C27.3977 12.4548 27.9042 12.0057 27.9396 11.4164C27.9749 10.8271 27.5259 10.3207 26.9366 10.2852L22.6979 10.0308L23.6407 8.39785L28.9465 8.71635C29.5358 8.7517 30.0423 8.30264 30.0776 7.71332C30.113 7.12401 29.6639 6.61758 29.0746 6.58216L24.8359 6.32773L26.0201 4.27671C27.2008 2.23146 29.816 1.53075 31.8613 2.71152C33.9065 3.89236 34.6072 6.50754 33.4264 8.55279L31.7553 11.4473L29.5594 12.3622Z" fill="#AE80FF"/>
<path d="M16.5393 14.9663C15.1208 14.9663 13.7136 14.8787 12.3213 14.7048C12.2838 14.4409 12.2633 14.1715 12.2633 13.8972C12.2633 10.7484 14.8159 8.1958 17.9647 8.1958C19.0133 8.1958 19.9951 8.48016 20.8392 8.97412L17.3857 14.9559C17.104 14.9628 16.8219 14.9663 16.5393 14.9663V14.9663Z" fill="#AE80FF"/>
<path d="M10.8798 10.5431C10.0899 8.4541 9.9452 6.88214 9.94314 6.85805C9.89303 6.2698 9.37541 5.83493 8.78738 5.88339C8.19914 5.93342 7.76276 6.45089 7.81279 7.03914C7.82583 7.19265 8.12274 10.4192 10.1267 13.9702C10.1279 14.1006 10.1333 14.23 10.1408 14.3589C7.88214 13.9243 5.66919 13.2581 3.51918 12.3622L2.23244 11.8261C2.40148 11.4116 2.63724 11.0254 2.93264 10.6846C1.48141 10.0412 0.503974 8.59613 0.503974 6.94863C0.503974 4.68901 2.34226 2.85072 4.60188 2.85072C4.95993 2.85072 5.31435 2.89875 5.66128 2.9939C6.14583 1.24812 7.73354 0 9.59064 0C11.3994 0 12.9653 1.17913 13.4929 2.86939C13.6189 2.85692 13.7431 2.85072 13.8667 2.85072C15.8207 2.85072 17.4587 4.22591 17.8662 6.05906C14.7848 6.09719 12.1259 7.92194 10.8798 10.5431V10.5431Z" fill="#AE80FF"/>
<path d="M2.69698 14.3359C7.10583 16.173 11.7631 17.1044 16.5394 17.1044C21.3157 17.1044 25.973 16.173 30.3819 14.3359C31.1318 14.0234 31.9425 14.6287 31.8559 15.4366C31.4998 18.7605 30.2107 30.9212 29.9223 33.623C29.7479 35.257 28.3769 36.4893 26.7334 36.4893H6.34554C4.70196 36.4893 3.33105 35.257 3.15659 33.6229C2.86816 30.9212 1.57907 18.7605 1.22294 15.4365C1.13635 14.6287 1.94703 14.0234 2.69698 14.3359V14.3359ZM8.34361 29.3625C8.34361 29.9529 8.82225 30.4315 9.41263 30.4315H23.6662C24.2566 30.4315 24.7353 29.9529 24.7353 29.3625V23.6611C24.7353 23.0707 24.2566 22.5921 23.6662 22.5921H9.41263C8.82225 22.5921 8.34361 23.0707 8.34361 23.6611V29.3625Z" fill="#AE80FF"/>
<path d="M22.597 24.7302H10.4815V28.2936H22.597V24.7302Z" fill="#AE80FF"/>
</svg>
