<svg width="30" height="37" viewBox="0 0 30 37" fill="none" xmlns="http://www.w3.org/2000/svg">
<path d="M15.85 10.0058C16.5178 8.89066 17.5744 7.29467 18.9091 5.76325H18.9107C20.041 4.46352 22.2546 2.79537 22.2546 2.79537C22.5874 2.54393 22.5517 2.19374 22.1733 2.0175L19.4979 0.767149C19.1196 0.590154 18.6053 0.719292 18.3546 1.05277C18.3546 1.05277 16.3757 3.89152 14.0466 9.93439C6.84518 6.67709 0 11.2394 0 19.173C0 27.4599 6.37572 40.0477 14.9977 36.2481C24.0785 40.1776 30 27.4606 30 19.173C30 11.1711 23.8469 6.47958 15.85 10.0058Z" fill="#F8644A"/>
</svg>
