<svg width="37" height="46" viewBox="0 0 37 46" fill="none" xmlns="http://www.w3.org/2000/svg">
<path d="M35.4732 6.46601H28.5384L29.1997 2.69417H31.7014C32.4453 2.69417 33.0485 2.09103 33.0485 1.34708C33.0485 0.603135 32.4453 0 31.7014 0H28.0683C27.4141 0 26.8544 0.470043 26.7415 1.11449L25.8032 6.46601H1.34708C0.603135 6.46601 0 7.06914 0 7.81309V14.2791C0 15.023 0.603135 15.6262 1.34708 15.6262H3.63695C3.99994 18.6042 4.25544 20.6988 4.54408 23.0647C10.351 24.3918 11.3329 28.0194 18.4102 28.0194C25.4739 28.0194 26.4831 24.3904 32.2762 23.0637C32.4683 21.4891 32.9912 17.2019 33.1834 15.6262H35.4732C36.2172 15.6262 36.8203 15.023 36.8203 14.2791V7.81309C36.8203 7.06914 36.2172 6.46601 35.4732 6.46601Z" fill="#FCBD39"/>
<path d="M18.4101 30.7136C11.0641 30.7136 9.17769 27.3057 4.89575 25.9479L6.53776 39.4083C6.53776 39.4083 6.53776 39.4084 6.53776 39.4085L7.19424 44.7966C7.27668 45.4725 7.85054 45.9806 8.53144 45.9806H28.2887C28.9696 45.9806 29.5435 45.4725 29.6259 44.7966L29.8462 42.9891C29.8462 42.9891 31.9246 25.9462 31.9246 25.946C27.6489 27.3031 25.7558 30.7136 18.4101 30.7136ZM27.0959 43.2864H9.72433L9.39609 40.5923H27.4243C27.3024 41.5913 27.2072 42.3724 27.0959 43.2864Z" fill="#FCBD39"/>
</svg>
